<svg width="238" height="117" viewBox="0 0 238 117" fill="none" xmlns="http://www.w3.org/2000/svg">
<path d="M188.742 53.644C187.617 53.6847 186.96 54.5639 186.187 55.1585C176.977 62.2429 156.211 61.9482 147.714 51.6366C147.394 51.2504 147.083 50.8489 146.767 50.4576C139.35 40.8423 137.97 30.4646 142.924 19.3399C143.769 17.4341 144.843 15.63 145.81 13.7801C149.328 10.4971 152.826 7.21914 157.484 5.5268C162.687 3.63627 167.997 3.94628 173.419 4.16481C179.243 4.39858 183.88 6.93454 188.406 10.0854C189.078 10.8376 189.72 11.6151 190.422 12.3368C198.71 20.8391 200.314 34.9928 194.668 45.5838C193.059 48.5924 190.407 50.7371 188.742 53.644ZM184.848 22.4908C184.812 20.6409 184.028 19.1875 182.328 18.4404C180.541 17.6578 178.866 17.9881 177.461 19.4212C174.152 22.7957 170.878 26.2008 167.503 29.5092C165.965 31.0186 164.871 33.7172 162.682 33.6409C160.574 33.5698 159.408 30.9627 157.799 29.5143C155.687 27.6136 153.503 27.3798 151.726 28.9959C149.812 30.734 149.644 33.5291 151.543 35.5467C154.149 38.3063 156.847 40.9846 159.602 43.6018C161.653 45.5534 163.863 45.5127 165.869 43.5053C171.657 37.7168 177.4 31.8774 183.142 26.0432C184.094 25.0674 184.863 23.9595 184.848 22.4908Z" fill="#A6D631"/>
<path d="M188.338 53.3219C190.01 50.4135 192.674 48.2678 194.29 45.2526C199.957 34.6563 198.351 20.4956 190.025 11.989C189.319 11.267 188.675 10.4891 188 9.73654C188.557 8.41454 189.089 7.08238 189.683 5.77563C191.457 1.8503 194.965 0.121526 199.077 1.43336C210.461 5.07903 221.82 8.80606 233.163 12.589C236.712 13.7737 238.651 17.3177 237.802 21.1261C236.042 29.0327 234.13 36.9088 232.278 44.8001C231.312 48.9085 230.33 53.0168 229.374 57.1303C228.115 62.5149 223.947 65.1793 218.726 63.5013C208.549 60.2319 198.458 56.7286 188.338 53.3219ZM208.922 15.3093C208.922 15.3195 208.922 15.3296 208.922 15.3398C207.904 15.3398 206.881 15.294 205.864 15.35C204.59 15.4262 203.813 16.0364 203.828 17.4245C203.89 23.4193 204.381 29.3886 204.815 35.3681C205.02 38.185 207.219 37.7986 208.968 37.8901C210.804 37.9867 212.533 37.7833 212.691 35.2105C213.044 29.4852 213.555 23.7752 214 18.055C214.138 16.2652 213.259 15.3652 211.479 15.3144C210.62 15.2889 209.771 15.3093 208.922 15.3093ZM208.656 41.0832C206.738 41.1138 204.56 40.6917 204.575 43.7323C204.59 46.3051 205.531 47.1085 208.707 47.1136C211.919 47.1187 212.62 46.5594 212.655 43.9561C212.686 41.3578 212.318 41.0934 208.656 41.0832Z" fill="#53C6D9"/>
<path d="M145.055 13.8363C144.1 15.675 143.039 17.4733 142.205 19.3626C137.318 30.4251 138.676 40.7349 146 50.2921C143.894 51.7015 143.135 54.1362 141.677 56.0457C140.812 57.1721 140.123 58.4299 139.304 59.5917C136.806 63.1479 133.126 63.9662 129.185 61.8345C123.308 58.6623 117.452 55.4546 111.575 52.2925C110.555 51.7419 109.459 51.3277 108.398 50.8528C106.217 48.9788 103.502 48.0291 101.074 46.5794C97.2434 44.2961 96.0621 41.0734 97.7512 36.9919C99.1839 33.5266 100.747 30.1169 102.13 26.6315C102.954 24.5503 104.251 22.6358 104.427 20.3122C107.046 16.0034 108.599 11.2096 110.57 6.60783C112.661 1.72315 115.713 -0.645948 119.498 0.15217C121.715 0.621948 123.605 1.98077 125.565 3.07692C132.045 6.6836 138.751 9.89627 145.055 13.8363ZM126.199 46.8774C126.485 45.5489 126.425 44.2103 126.234 42.8767C126.646 41.4977 125.872 41.033 124.711 40.9673C123.635 40.9067 122.554 40.942 121.478 40.9521C119.82 40.9673 119.236 41.7856 119.714 43.3768C119.528 44.5487 119.468 45.7156 119.754 46.8774C121.328 48.2716 124.595 48.2716 126.199 46.8774ZM121.896 23.1814C122.896 23.1814 123.901 23.1511 124.902 23.1864C127.018 23.2622 128.501 24.6766 128.471 26.5557C128.441 28.4045 126.918 29.7835 124.806 29.8745C119.518 30.1018 119.518 30.1018 119.548 35.5623C119.548 35.6482 119.543 35.729 119.548 35.8149C119.664 36.911 119.116 38.5022 120.76 38.6891C122.514 38.8912 124.826 39.6842 125.947 38.1133C126.898 36.7797 127.898 36.5524 129.155 36.3049C132.156 35.7139 134.031 33.9257 134.87 30.9858C135.579 28.5106 135.569 25.9698 135.177 23.4946C134.503 19.2312 132.598 17.4077 128.375 16.6045C125.063 15.9731 121.705 16.2711 118.382 16.3924C116.441 16.4631 115.094 17.8623 115.2 19.9132C115.3 21.9085 116.542 23.1157 118.638 23.1713C119.724 23.1965 120.81 23.1713 121.896 23.1814Z" fill="#FBC137"/>
<path d="M124.79 116.84C114.17 116.84 103.545 117.278 92.9299 116.705C82.9383 116.166 72.9467 115.122 62.9755 113.252C56.5851 112.056 50.2254 108.99 43.8504 106.699C43.268 106.496 42.7061 105.755 42.134 105.283C41.6334 104.879 41 104.525 41 102.571C41 100.583 41.6385 100.465 42.134 99.9769C45.4033 96.8099 48.7951 96.4055 52.1359 95.0915C58.8634 92.4299 65.6419 92.5984 72.395 91.3686C101.067 86.0958 129.755 88.589 158.437 88.589C168.914 88.589 179.402 91.1327 189.858 93.6428C194.798 94.8389 199.829 95.0579 204.651 99.9096C205.203 100.466 206.005 100.128 206 102.655C206 104.93 205.208 105.637 204.677 105.991C202.276 107.524 199.875 109.411 197.444 109.95C190.864 111.415 184.27 112.51 177.695 113.858C160.067 117.429 142.434 116.705 124.79 116.84Z" fill="url(#paint0_radial_2914_96)"/>
<path d="M21.2295 50.9968C17.3548 52.0122 13.6888 51.931 10.0686 50.8191C6.12261 49.6056 3.16945 47.1837 1.64705 43.3605C-0.608556 37.6892 -0.715479 31.9113 2.38024 26.5446C6.03096 20.2183 12.258 18.9084 18.979 19.0048C22.6246 19.0556 25.98 20.2437 29.1267 21.9547C30.8324 22.8839 31.9475 24.4375 31.9576 26.4634C31.9984 37.6841 31.9882 48.8999 31.9984 60.1206C31.9984 60.7959 32.0798 61.4204 31.087 61.593C28.8161 61.9891 26.5554 62.2074 24.2845 61.72C22.09 61.2478 21.3365 59.5926 21.255 57.5921C21.1583 55.4851 21.2295 53.378 21.2295 50.9968ZM21.2652 35.2623C21.2652 33.4903 21.1328 31.7082 21.3008 29.9514C21.4892 27.9713 20.5116 27.489 18.8059 27.4026C15.4709 27.2402 13.0422 28.4232 11.8202 30.9415C10.3079 34.059 10.8528 39.2835 12.9149 41.4616C14.4576 43.0914 18.3018 43.8175 20.2774 42.9137C21.1277 42.5228 21.2805 41.8932 21.2703 41.0808C21.2448 39.1413 21.2601 37.2018 21.2652 35.2623Z" fill="#834C34"/>
<path d="M65.9782 34.8577C65.9782 37.9779 65.9631 41.098 65.9832 44.2182C65.9983 46.557 65.0016 48.3124 62.9275 49.3119C56.1668 52.5842 49.2348 52.9343 42.313 50.0019C38.321 48.3124 36.2973 44.8524 36.1362 40.6161C35.8996 34.3859 36.0607 28.1405 36.0003 21.9002C35.9902 20.8602 36.2721 20.3427 37.3544 20.297C38.4368 20.2513 39.514 20.018 40.5964 20.0027C45.268 19.9317 46.5869 21.2204 46.6272 25.9234C46.6675 30.1394 46.6071 34.3555 46.6574 38.5715C46.7128 42.7418 50.8004 45.0248 54.5408 43.0817C55.5778 42.5439 55.316 41.7068 55.321 40.9154C55.3361 34.8425 55.3966 28.7747 55.2858 22.7018C55.2556 21.0124 55.7489 20.1905 57.4152 20.1651C59.3684 20.1397 61.2159 19.8658 63.2547 20.6166C65.4949 21.4385 65.8976 22.8794 65.9479 24.7312C66.0436 28.1151 65.9782 31.489 65.9782 34.8577Z" fill="#834C34"/>
<path d="M104.083 20.0075C103.91 22.3553 102.631 24.299 101.817 26.4064C100.454 29.9358 98.912 33.3885 97.499 36.8974C95.8331 41.0304 97.0032 44.2887 100.776 46.6058C103.171 48.0739 105.853 49.0355 108 50.9332C101.49 50.9485 94.9754 50.9178 88.4655 50.9997C86.2691 51.0253 85.6692 49.4805 85.2279 47.8335C84.4297 44.8616 85.8477 42.5803 87.6276 40.4422C90.8354 36.5905 94.0234 32.7235 97.7023 28.2785C94.3159 28.2785 91.5047 28.2785 88.6935 28.2785C85.9022 28.2785 85.3122 27.6392 85.1982 24.4934C85.094 21.6801 86.1055 20.166 88.5051 20.0791C92.2931 19.941 96.0859 20.0279 99.8788 20.0177C101.282 20.0126 102.68 20.0075 104.083 20.0075Z" fill="#834C34"/>
<path d="M80.9544 37.3106C80.959 41.3339 80.9075 45.3572 80.9825 49.3753C81.0106 50.7886 80.8512 51.7171 79.3039 51.5984C78.8538 51.5623 78.3896 51.7841 77.9255 51.846C72.7398 52.5527 71.0237 50.9073 71.0237 45.2385C71.0237 37.6201 71.0519 30.0068 71.0003 22.3883C70.9909 21.0678 71.1925 20.258 72.5523 20.3044C72.857 20.3148 73.1618 20.16 73.4712 20.1342C78.535 19.67 81.306 20.0465 80.9731 27.2988C80.8277 30.6257 80.9497 33.9733 80.9544 37.3106Z" fill="#834C34"/>
<path d="M75.9868 17C72.4798 17.0098 70 14.7628 70 11.5774C70 8.37223 72.4383 6.07577 75.9038 6.00169C79.473 5.92761 82.041 8.29814 81.9995 11.6169C81.958 14.8517 79.5716 16.9901 75.9868 17Z" fill="#834C34"/>
<path d="M185 22.4617C185.015 23.9299 184.239 25.0373 183.272 26.0126C177.472 31.8444 171.673 37.6813 165.827 43.4673C163.801 45.4739 161.57 45.5145 159.498 43.5638C156.716 40.9477 153.991 38.2705 151.358 35.5121C149.436 33.4954 149.605 30.7065 151.544 28.9641C153.338 27.3486 155.549 27.5823 157.677 29.4822C159.307 30.93 160.485 33.536 162.608 33.6071C164.819 33.6783 165.925 30.9808 167.477 29.4771C170.886 26.1701 174.192 22.7665 177.534 19.3935C178.953 17.9609 180.645 17.6307 182.45 18.413C184.172 19.1598 184.964 20.6126 185 22.4617Z" fill="#FEFEFE"/>
<path d="M209.011 15.0078C209.844 15.0078 210.678 14.9871 211.511 15.013C213.258 15.0596 214.122 15.9752 213.986 17.8013C213.554 23.621 213.047 29.4303 212.701 35.2552C212.545 37.8728 210.848 38.0797 209.046 37.9814C207.329 37.8883 205.17 38.2814 204.969 35.4156C204.542 29.3372 204.065 23.264 204 17.1598C203.985 15.7476 204.753 15.1268 205.998 15.0492C206.997 14.9871 208.002 15.0389 209.001 15.0389C209.011 15.0285 209.011 15.0182 209.011 15.0078Z" fill="#FEFEFE"/>
<path d="M209.04 41.0043C212.664 41.0144 213.029 41.2773 212.998 43.8606C212.968 46.4489 212.275 47.005 209.09 47C205.947 46.9949 205.02 46.1962 205 43.6381C204.98 40.6201 207.136 41.0346 209.04 41.0043Z" fill="#FEFEFE"/>
<path d="M121.95 23.0109C120.824 23.0058 119.698 23.0312 118.572 23.0007C116.393 22.9448 115.11 21.7297 115.006 19.7216C114.897 17.6576 116.299 16.2494 118.306 16.1782C121.752 16.0562 125.234 15.7562 128.67 16.3917C133.049 17.2 135.024 19.0353 135.723 23.3261C136.13 25.8171 136.14 28.3743 135.405 30.8654C134.534 33.8241 132.59 35.6238 129.478 36.2186C128.174 36.4677 127.137 36.6965 126.152 38.0386C124.989 39.6197 122.591 38.8215 120.772 38.6182C119.067 38.425 119.635 36.8287 119.515 35.7255C119.505 35.6441 119.515 35.5577 119.515 35.4713C119.484 29.9757 119.484 29.9757 124.968 29.7469C127.158 29.6554 128.737 28.2675 128.769 26.4069C128.8 24.5157 127.262 23.0922 125.067 23.0159C124.03 22.9854 122.993 23.0159 121.95 23.0109Z" fill="#FEFEFE"/>
<path fill-rule="evenodd" clip-rule="evenodd" d="M125.277 41.0346C126.465 41.1004 127.256 41.5707 126.835 42.9514C127.03 44.2866 127.092 45.6217 126.799 46.9569C125.335 46.9535 123.872 46.9546 122.407 46.9558C121.673 46.9563 120.94 46.9569 120.206 46.9569C119.913 45.7937 119.969 44.6204 120.165 43.4521C119.676 41.859 120.273 41.0346 121.97 41.0195C122.198 41.0174 122.427 41.0142 122.656 41.011H122.657C123.53 40.9988 124.405 40.9866 125.277 41.0346ZM120.206 46.9569H126.799C125.158 48.3477 121.815 48.3477 120.206 46.9569Z" fill="white"/>
<defs>
<radialGradient id="paint0_radial_2914_96" cx="0" cy="0" r="1" gradientUnits="userSpaceOnUse" gradientTransform="translate(123.5 102.5) rotate(90) scale(14.5 82.5)">
<stop stop-color="#C2C2C2"/>
<stop offset="1" stop-color="white" stop-opacity="0.1"/>
</radialGradient>
</defs>
</svg>
