<svg width="25" height="20" viewBox="0 0 25 20" fill="none" xmlns="http://www.w3.org/2000/svg">
<path fill-rule="evenodd" clip-rule="evenodd" d="M6.32135 1.18698C10.3005 0.841077 14.3021 0.841077 18.2813 1.18698L20.1893 1.35377C21.0764 1.431 21.9116 1.80456 22.5606 2.41428C23.2095 3.024 23.6343 3.83439 23.7666 4.71494C24.3396 8.52643 24.3396 12.4022 23.7666 16.2137C23.716 16.5473 23.625 16.8669 23.4987 17.1664C23.4153 17.3648 23.1575 17.3951 23.0109 17.2359L17.4246 11.0898C17.301 10.9539 17.1407 10.8569 16.963 10.8104C16.7854 10.764 16.598 10.7702 16.4238 10.8282L13.2256 11.8947L8.58698 6.67604C8.50117 6.5795 8.39655 6.50152 8.27951 6.44688C8.16248 6.39225 8.03551 6.36211 7.90641 6.35833C7.77731 6.35454 7.6488 6.37718 7.52876 6.42486C7.40873 6.47255 7.29971 6.54426 7.20839 6.6356L0.999081 12.8449C0.956897 12.8883 0.902979 12.9184 0.843937 12.9315C0.784894 12.9447 0.723293 12.9404 0.666686 12.919C0.610078 12.8977 0.560923 12.8603 0.525248 12.8115C0.489573 12.7626 0.468928 12.7044 0.465843 12.644C0.316422 9.9949 0.440063 7.33746 0.834813 4.71367C0.967093 3.83313 1.3919 3.02274 2.04082 2.41302C2.68973 1.8033 3.52499 1.42974 4.41206 1.35251L6.32135 1.18698ZM14.8279 6.67351C14.8279 6.17082 15.0276 5.68872 15.383 5.33326C15.7385 4.97781 16.2206 4.77812 16.7233 4.77812C17.226 4.77812 17.7081 4.97781 18.0635 5.33326C18.419 5.68872 18.6187 6.17082 18.6187 6.67351C18.6187 7.1762 18.419 7.6583 18.0635 8.01376C17.7081 8.36921 17.226 8.56891 16.7233 8.56891C16.2206 8.56891 15.7385 8.36921 15.383 8.01376C15.0276 7.6583 14.8279 7.1762 14.8279 6.67351Z" fill="#C7C7C7"/>
<path d="M0.879063 15.6451C0.844856 15.6795 0.819073 15.7213 0.803728 15.7674C0.788384 15.8134 0.783895 15.8624 0.790611 15.9104L0.834837 16.2137C0.967116 17.0942 1.39192 17.9046 2.04084 18.5143C2.68976 19.1241 3.52501 19.4976 4.41208 19.5748L6.32011 19.7404C10.3004 20.0866 14.301 20.0866 18.2813 19.7404L20.1893 19.5748C20.7126 19.5296 21.2217 19.3805 21.6867 19.1364C21.8598 19.0467 21.8889 18.818 21.7575 18.6739L16.5767 12.9751C16.5356 12.9293 16.482 12.8966 16.4225 12.8809C16.363 12.8652 16.3002 12.8672 16.2419 12.8866L13.232 13.8899C13.056 13.9487 12.8667 13.9545 12.6874 13.9067C12.5082 13.8588 12.3469 13.7594 12.2236 13.6208L8.06008 8.93663C8.03142 8.90444 7.99647 8.87846 7.95739 8.86028C7.91831 8.8421 7.87592 8.83211 7.83284 8.83093C7.78975 8.82975 7.74688 8.83739 7.70686 8.8534C7.66684 8.8694 7.63052 8.89343 7.60013 8.92399L0.879063 15.6451Z" fill="#C7C7C7"/>
</svg>
